<svg width="186" height="186" viewBox="0 0 186 186" fill="none" xmlns="http://www.w3.org/2000/svg">
<circle cx="93" cy="93" r="90" stroke="white" stroke-width="6"/>
<path fill-rule="evenodd" clip-rule="evenodd" d="M65.3432 93.1639L50.2734 78.117L71.905 56.5182L76.1073 60.7269L58.6909 78.117L69.5519 88.9616L90.607 67.9384V56.5419H96.5545V67.9386L117.609 88.9616L128.47 78.117L111.054 60.7269L115.256 56.5182L136.888 78.117L121.818 93.1639L136.888 108.211L115.256 129.81L111.054 125.601L128.47 108.211L117.609 97.3663L96.5545 118.389V131.445H90.607V118.389L69.5519 97.3663L58.6909 108.211L76.1073 125.601L71.905 129.81L50.2734 108.211L65.3432 93.1639ZM113.401 93.1639L93.5807 73.3739L73.7607 93.1639L93.5807 112.954L113.401 93.1639Z" fill="white"/>
</svg>
