<svg width="128" height="128" viewBox="0 0 128 128" fill="none" xmlns="http://www.w3.org/2000/svg">
  <rect width="128" height="128" fill="white" />
  <g clip-path="url(#clip0_2005_2)">
    <path
      d="M106.523 39.795C106.517 38.6896 106.232 37.604 105.694 36.6417C105.149 35.6877 104.366 34.8952 103.424 34.3438L72.8134 16.296C70.2087 14.7913 67.261 14 64.2618 14C61.2625 14 58.3151 14.7913 55.7104 16.296L28.6302 32.2304C26.5916 33.4432 24.9052 35.179 23.7413 37.2623C22.592 39.3369 21.9925 41.6771 22.0011 44.0554V59.7048C21.9982 62.0929 22.6074 64.441 23.7694 66.5196C24.9313 68.5981 26.6062 70.3358 28.6302 71.5633L62.4057 91.4227C62.9762 91.7521 63.6216 91.9254 64.2784 91.9254C64.9352 91.9254 65.5807 91.7521 66.1513 91.4227L84.0498 80.8892C84.6122 80.5494 85.0797 80.0702 85.4088 79.4971C85.7365 78.9146 85.908 78.2552 85.9061 77.585V74.5323C85.9065 73.8621 85.7351 73.2031 85.4088 72.62C85.0847 72.0431 84.616 71.5629 84.0498 71.2279L75.7635 66.2967L68.405 70.775L77.3379 76.0585L64.2784 83.7575L51.2356 76.0585L81.0667 58.43L73.7084 53.9683L64.2618 59.5706L51.2356 51.9221L64.2618 44.1896L96.0819 62.9756C96.9791 63.5171 97.7217 64.286 98.2363 65.2065C98.7606 66.1306 99.0405 67.1765 99.0484 68.2423V83.8917C99.0382 84.9571 98.7585 86.0023 98.2363 86.9275C97.7172 87.85 96.9685 88.619 96.0653 89.1583L69.068 105.093C67.599 105.941 65.9367 106.388 64.2452 106.388C62.5539 106.388 60.8916 105.941 59.4226 105.093L30.8013 88.2023L39.8003 82.8517L32.3591 78.4069L25.0837 82.7677C24.1576 83.306 23.382 84.0737 22.8298 84.9985C22.2861 85.9585 22 87.0456 22 88.1519C22 89.2583 22.2861 90.3454 22.8298 91.3054C23.3731 92.2548 24.1494 93.0465 25.0837 93.6033L55.7104 111.668C58.3074 113.195 61.258 114 64.2618 114C67.2658 114 70.2161 113.195 72.8134 111.668L99.8936 95.7333C101.92 94.5085 103.596 92.771 104.759 90.6921C105.921 88.6129 106.529 86.2635 106.523 83.8748V68.2423C106.529 65.8535 105.921 63.5042 104.759 61.425C103.596 59.346 101.92 57.6085 99.8936 56.3837L92.2699 51.8885L103.506 45.2631C104.45 44.7052 105.232 43.9073 105.777 42.9485C106.315 41.9923 106.6 40.9121 106.605 39.8119M44.4738 47.1585C43.9105 47.4935 43.443 47.9715 43.1175 48.545C42.792 49.1183 42.6198 49.7679 42.6177 50.4292V53.4483C42.6259 54.1121 42.7968 54.7633 43.1148 55.3437C43.4503 55.9177 43.9234 56.3965 44.4904 56.736L56.8042 63.9819L43.7778 71.664L32.442 64.9548C31.5361 64.41 30.7852 63.6369 30.2624 62.7108C29.7396 61.785 29.4628 60.7377 29.4589 59.6712V44.0723C29.4607 43.0077 29.7369 41.9619 30.26 41.0383C30.7832 40.1146 31.5352 39.345 32.442 38.8054L59.4392 22.871C60.9024 22.0141 62.563 21.5628 64.2535 21.5628C65.9442 21.5628 67.6048 22.0141 69.068 22.871L97.5899 39.9125L84.7294 47.5444L66.1347 36.541C65.5642 36.2117 64.9188 36.0383 64.2618 36.0383C63.605 36.0383 62.9596 36.2117 62.3891 36.541L44.4738 47.1585Z"
      fill="#14101B" />
  </g>
  <defs>
    <clipPath id="clip0_2005_2">
      <rect width="85" height="100" fill="white" transform="translate(22 14)" />
    </clipPath>
  </defs>
</svg>