<svg width="26" height="30" viewBox="0 0 26 30" fill="none" xmlns="http://www.w3.org/2000/svg">
<path d="M25.8114 7.62371C25.8106 7.33168 25.7333 7.04495 25.587 6.7922C25.4407 6.53944 25.2306 6.3295 24.9778 6.18338L15.4412 0.677472C14.6699 0.23361 13.7956 0 12.9057 0C12.0158 0 11.1415 0.23361 10.3701 0.677472L1.9599 5.53673C1.36542 5.88125 0.871623 6.37558 0.52774 6.97044C0.183857 7.56529 0.00189777 8.23989 0 8.92699L0 13.6978C0.0012447 14.3855 0.182895 15.0609 0.52681 15.6564C0.870726 16.252 1.36487 16.7469 1.9599 17.0918L12.4596 23.1509C12.5971 23.2305 12.7531 23.2725 12.9119 23.2725C13.0707 23.2725 13.2268 23.2305 13.3642 23.1509L18.9386 19.9351C19.076 19.8557 19.1901 19.7417 19.2695 19.6044C19.3489 19.467 19.3907 19.3112 19.3909 19.1526V18.2206C19.3919 18.0607 19.3506 17.9035 19.2712 17.7647C19.1918 17.626 19.077 17.5107 18.9386 17.4307L15.9483 15.7063L14.1404 16.7504L17.4908 18.6804L12.9132 21.3243L8.33424 18.6891L18.0889 13.0511L16.2822 12.0083L12.9044 13.9544L8.33673 11.3242L12.9069 8.6753L22.9469 14.4728C23.2676 14.6585 23.534 14.9252 23.7194 15.2462C23.9049 15.5672 24.0028 15.9312 24.0035 16.3018V21.0726C24.0028 21.4433 23.9049 21.8073 23.7194 22.1283C23.534 22.4492 23.2676 22.7159 22.9469 22.9017L14.5366 27.761C14.0404 28.0469 13.4778 28.1974 12.9051 28.1974C12.3323 28.1974 11.7697 28.0469 11.2735 27.761L1.97236 22.3909L5.30406 20.4484L3.48869 19.3968L0.833549 20.9318C0.58021 21.0779 0.369804 21.288 0.223508 21.5412C0.0772117 21.7944 0.00018748 22.0816 0.00018748 22.374C0.00018748 22.6664 0.0772117 22.9537 0.223508 23.2069C0.369804 23.46 0.58021 23.6702 0.833549 23.8162L10.3714 29.3221C11.1426 29.7662 12.017 30 12.9069 30C13.7969 30 14.6712 29.7662 15.4425 29.3221L23.8515 24.4629C24.4468 24.118 24.9413 23.6229 25.2854 23.0271C25.6295 22.4313 25.8113 21.7557 25.8126 21.0676V16.3018C25.8113 15.6138 25.6295 14.9381 25.2854 14.3423C24.9413 13.7466 24.4468 13.2515 23.8515 12.9066L21.0904 11.3143L24.9778 9.07152C25.2309 8.92509 25.4412 8.71474 25.5874 8.46153C25.7337 8.20832 25.8109 7.92112 25.8114 7.6287M6.42294 10.8682V11.7877C6.4231 11.9463 6.46497 12.1021 6.54435 12.2395C6.62374 12.3768 6.73784 12.4909 6.87522 12.5702L11.0965 15.0011L6.5276 17.6412L2.86447 15.5231C2.54371 15.3373 2.27732 15.0706 2.09191 14.7497C1.9065 14.4287 1.80856 14.0647 1.80789 13.694V8.92699C1.80934 8.55683 1.90778 8.19352 2.09338 7.87325C2.27898 7.55298 2.54527 7.28695 2.86571 7.10165L11.2735 2.2424C11.7698 1.95673 12.3324 1.80637 12.9051 1.80637C13.4777 1.80637 14.0403 1.95673 14.5366 2.2424L23.7979 7.66109L19.2825 10.2701L13.358 6.85246C13.2204 6.77259 13.0641 6.73052 12.9051 6.73052C12.746 6.73052 12.5897 6.77259 12.4521 6.85246L6.87397 10.092C6.73684 10.1711 6.62296 10.285 6.54379 10.4221C6.46462 10.5593 6.42294 10.7148 6.42294 10.8732" fill="white"/>
</svg>
