<svg width="22" height="22" viewBox="0 0 22 22" fill="none" xmlns="http://www.w3.org/2000/svg">
<path d="M1 11C1 5.5 5.5 1 11 1C16.5 1 21 5.5 21 11C21 16.5 16.5 21 11 21C5.5 21 1 16.5 1 11Z" stroke="#4B9EFF" stroke-width="0.7"/>
<path d="M15.6155 5.61548H15.9655V5.26548H15.6155V5.61548ZM6.38477 5.61548V5.26548H6.03477V5.61548H6.38477ZM15.6155 6.11548V6.46548H15.9655V6.11548H15.6155ZM6.38477 6.11548H6.03477V6.46548H6.38477V6.11548ZM15.6154 7.84608H15.9654V7.49608H15.6154V7.84608ZM6.38462 7.84608V7.49608H6.03462V7.84608H6.38462ZM15.6154 8.34608V8.69608H15.9654V8.34608H15.6154ZM6.38462 8.34608H6.03462V8.69608H6.38462V8.34608ZM6.38462 10.014V9.66405H6.03462V10.014H6.38462ZM15.6154 10.014H15.9654V9.66405H15.6154V10.014ZM6.38462 16.3846H6.03462V17.0246L6.57346 16.6793L6.38462 16.3846ZM11 13.4268L11.1888 13.1321L11 13.0111L10.8112 13.1321L11 13.4268ZM15.6154 16.3846L15.4265 16.6793L15.9654 17.0246V16.3846H15.6154ZM15.6155 5.26548H6.38477V5.96548H15.6155V5.26548ZM15.9655 6.11548V5.61548H15.2655V6.11548H15.9655ZM6.38477 6.46548H15.6155V5.76548H6.38477V6.46548ZM6.03477 5.61548V6.11548H6.73477V5.61548H6.03477ZM15.6154 7.49608H6.38462V8.19608H15.6154V7.49608ZM15.9654 8.34608V7.84608H15.2654V8.34608H15.9654ZM6.38462 8.69608H15.6154V7.99608H6.38462V8.69608ZM6.03462 7.84608V8.34608H6.73462V7.84608H6.03462ZM6.38462 10.364H15.6154V9.66405H6.38462V10.364ZM6.73462 16.3846V10.014H6.03462V16.3846H6.73462ZM10.8112 13.1321L6.19577 16.0899L6.57346 16.6793L11.1888 13.7215L10.8112 13.1321ZM15.8042 16.0899L11.1888 13.1321L10.8112 13.7215L15.4265 16.6793L15.8042 16.0899ZM15.2654 10.014V16.3846H15.9654V10.014H15.2654Z" fill="#4B9EFF"/>
</svg>
