<svg width="22" height="22" viewBox="0 0 22 22" fill="none" xmlns="http://www.w3.org/2000/svg">
<path d="M10.8214 1.17847C5.39643 1.17847 1 5.57489 1 10.9999C1 16.4249 5.39643 20.8213 10.8214 20.8213C16.2464 20.8213 20.6429 16.4249 20.6429 10.9999C20.6429 5.57489 16.2464 1.17847 10.8214 1.17847Z" stroke="#4B9EFF"/>
<path d="M15.1463 7H6.85366C6.39024 7 6 7.4129 6 7.90323V14.0968C6 14.5871 6.39024 15 6.85366 15H15.1463C15.6098 15 16 14.5871 16 14.0968V7.90323C16 7.4129 15.6098 7 15.1463 7ZM6.85366 7.77419H15.1463C15.2195 7.77419 15.2683 7.82581 15.2683 7.90323V8.2129L11 11.0516L6.73171 8.2129V7.90323C6.73171 7.82581 6.78049 7.77419 6.85366 7.77419ZM15.1463 14.2258H6.85366C6.78049 14.2258 6.73171 14.1742 6.73171 14.0968V9.11613L10.8049 11.8258C10.8537 11.8774 10.9268 11.8774 11 11.8774C11.0732 11.8774 11.1463 11.8516 11.1951 11.8258L15.2683 9.11613V14.0968C15.2683 14.1742 15.2195 14.2258 15.1463 14.2258Z" fill="#4B9EFF" stroke="#4B9EFF" stroke-width="0.2"/>
</svg>
