<svg width="22" height="22" viewBox="0 0 22 22" fill="none" xmlns="http://www.w3.org/2000/svg">
<path d="M3.92893 18.0711L4.17642 17.8236L4.17642 17.8236L3.92893 18.0711ZM3.92893 3.92893L3.68144 3.68144L3.68144 3.68144L3.92893 3.92893ZM18.0711 3.92893L17.8236 4.17642L17.8236 4.17642L18.0711 3.92893ZM18.0711 18.0711L17.8236 17.8236L17.8236 17.8236L18.0711 18.0711ZM9.03317 17.2333L9.28066 17.4808L9.30516 17.4563L9.32439 17.4275L9.03317 17.2333ZM12.8998 17.7L13.0564 18.0131L13.0846 17.9989L13.1098 17.98L12.8998 17.7ZM12.9665 17.2333L13.2465 17.0233L13.2316 17.0034L13.214 16.9859L12.9665 17.2333ZM12.3332 13.6L12.2915 13.2525L11.5115 13.3461L12.1027 13.8634L12.3332 13.6ZM14.9665 7.93334L14.6535 7.77682L14.5484 7.98699L14.7031 8.16382L14.9665 7.93334ZM14.8998 5.96668L15.2262 5.84033L15.1668 5.68672L15.0105 5.63464L14.8998 5.96668ZM12.8665 6.73334L12.7906 7.07501L12.9375 7.10765L13.0622 7.02352L12.8665 6.73334ZM9.13317 6.73334L8.9343 7.02136L9.06906 7.1144L9.22685 7.07057L9.13317 6.73334ZM7.09984 5.96668L6.99444 5.63292L6.83413 5.68355L6.77344 5.84033L7.09984 5.96668ZM7.0275 7.91643L6.69574 8.02793L6.69574 8.02793L7.0275 7.91643ZM7.03317 7.93334L7.29657 8.16382L7.42863 8.0129L7.36521 7.82266L7.03317 7.93334ZM9.6665 13.6L9.91399 13.8475L10.4232 13.3383L9.7082 13.2525L9.6665 13.6ZM9.19984 14.6L9.32548 14.9267L9.51726 14.8529L9.54632 14.6495L9.19984 14.6ZM7.03317 13.9667L6.72926 14.1403L6.73149 14.1441L7.03317 13.9667ZM5.89984 13.2L5.93152 12.8514L5.91571 12.85H5.89984V13.2ZM5.83317 13.6667L5.63246 13.9534L5.65748 13.9709L5.68516 13.9838L5.83317 13.6667ZM6.6665 14.7667L6.99854 14.656L6.99603 14.6485L6.99317 14.641L6.6665 14.7667ZM9.1665 15.6333H9.5165V15.2023L9.09468 15.2908L9.1665 15.6333ZM0.65 11C0.65 13.745 1.74044 16.3776 3.68144 18.3186L4.17642 17.8236C2.36669 16.0139 1.35 13.5593 1.35 11H0.65ZM3.68144 3.68144C1.74044 5.62245 0.65 8.25501 0.65 11H1.35C1.35 8.44066 2.36669 5.98615 4.17642 4.17642L3.68144 3.68144ZM11 0.65C8.25501 0.65 5.62245 1.74044 3.68144 3.68144L4.17642 4.17642C5.98615 2.36669 8.44066 1.35 11 1.35V0.65ZM18.3186 3.68144C16.3776 1.74044 13.745 0.65 11 0.65V1.35C13.5593 1.35 16.0139 2.36669 17.8236 4.17642L18.3186 3.68144ZM21.35 11C21.35 8.25501 20.2596 5.62245 18.3186 3.68144L17.8236 4.17642C19.6333 5.98615 20.65 8.44066 20.65 11H21.35ZM18.3186 18.3186C20.2596 16.3776 21.35 13.745 21.35 11H20.65C20.65 13.5593 19.6333 16.0139 17.8236 17.8236L18.3186 18.3186ZM11 21.35C13.745 21.35 16.3776 20.2596 18.3186 18.3186L17.8236 17.8236C16.0139 19.6333 13.5593 20.65 11 20.65V21.35ZM3.68144 18.3186C5.62245 20.2596 8.25501 21.35 11 21.35V20.65C8.44066 20.65 5.98615 19.6333 4.17642 17.8236L3.68144 18.3186ZM9.32439 17.4275C9.35624 17.3797 9.39476 17.3221 9.42496 17.2718C9.43994 17.2468 9.45743 17.2161 9.47221 17.1845C9.4791 17.1697 9.5165 17.0939 9.5165 17H8.8165C8.8165 16.974 8.81964 16.9532 8.82221 16.94C8.82487 16.9264 8.82794 16.9158 8.83008 16.9091C8.83417 16.8963 8.83776 16.8887 8.83788 16.8885C8.83807 16.888 8.83474 16.8949 8.82471 16.9116C8.80491 16.9446 8.77677 16.987 8.74195 17.0392L9.32439 17.4275ZM9.3165 17.4333C9.3165 17.4224 9.31829 17.4226 9.31505 17.4312C9.31234 17.4385 9.30373 17.4578 9.28066 17.4808L8.78569 16.9859C8.67509 17.0964 8.6165 17.2584 8.6165 17.4333H9.3165ZM9.29984 17.4167C9.28879 17.4167 9.28597 17.4149 9.28902 17.416C9.29239 17.4173 9.29892 17.4208 9.30566 17.4275C9.3124 17.4343 9.31584 17.4408 9.31713 17.4442C9.31831 17.4472 9.3165 17.4444 9.3165 17.4333H8.6165C8.6165 17.6129 8.67788 17.7897 8.81068 17.9225C8.94349 18.0553 9.1203 18.1167 9.29984 18.1167V17.4167ZM12.6998 17.4167H9.29984V18.1167H12.6998V17.4167ZM12.7433 17.387C12.7259 17.3956 12.7133 17.402 12.7013 17.4076C12.6897 17.413 12.682 17.4162 12.6769 17.4181C12.6654 17.4225 12.6758 17.4167 12.6998 17.4167V18.1167C12.8652 18.1167 13.01 18.0362 13.0564 18.0131L12.7433 17.387ZM12.6865 17.4433C12.6765 17.4301 12.6746 17.4207 12.6745 17.4203C12.6744 17.42 12.6751 17.4236 12.6742 17.4297C12.6733 17.4358 12.6717 17.4391 12.6719 17.4387C12.6721 17.4384 12.6766 17.43 12.6898 17.42L13.1098 17.98C13.2676 17.8617 13.3448 17.6849 13.3672 17.5287C13.3895 17.3724 13.3648 17.1811 13.2465 17.0233L12.6865 17.4433ZM12.4832 17C12.4832 17.2092 12.5998 17.3616 12.719 17.4808L13.214 16.9859C13.1956 16.9675 13.1836 16.9539 13.1761 16.9446C13.1686 16.9353 13.1671 16.932 13.1683 16.9342C13.1697 16.9368 13.174 16.9451 13.1776 16.9584C13.1814 16.9722 13.1832 16.9866 13.1832 17H12.4832ZM12.4832 14.9667V17H13.1832V14.9667H12.4832ZM12.1027 13.8634C12.279 14.0177 12.4832 14.3467 12.4832 14.9667H13.1832C13.1832 14.1867 12.9207 13.649 12.5636 13.3366L12.1027 13.8634ZM15.3832 9.93334C15.3832 11.2727 14.9776 12.0301 14.4334 12.4859C13.8717 12.9564 13.106 13.1548 12.2915 13.2525L12.3749 13.9475C13.227 13.8453 14.1613 13.6269 14.8829 13.0225C15.6221 12.4033 16.0832 11.4273 16.0832 9.93334H15.3832ZM14.7031 8.16382C15.1226 8.64322 15.3832 9.19704 15.3832 9.93334H16.0832C16.0832 9.00298 15.7438 8.29013 15.2299 7.70287L14.7031 8.16382ZM14.5734 6.09303C14.9352 7.02761 14.7127 7.6583 14.6535 7.77682L15.2796 8.08987C15.4203 7.80839 15.6645 6.97241 15.2262 5.84033L14.5734 6.09303ZM13.0622 7.02352C13.7519 6.55837 14.2192 6.38887 14.4943 6.32968C14.6314 6.30017 14.721 6.298 14.7675 6.30016C14.7908 6.30124 14.8039 6.30344 14.8071 6.30404C14.8088 6.30435 14.808 6.30427 14.805 6.30349C14.8035 6.30309 14.8014 6.30253 14.7988 6.30174C14.7974 6.30135 14.796 6.30091 14.7944 6.30041C14.7936 6.30015 14.7927 6.29989 14.7919 6.29961C14.7914 6.29947 14.791 6.29932 14.7905 6.29917C14.7903 6.2991 14.79 6.29898 14.7899 6.29895C14.7895 6.29883 14.7892 6.29872 14.8998 5.96668C15.0105 5.63464 15.0102 5.63452 15.0098 5.6344C15.0097 5.63436 15.0093 5.63424 15.0091 5.63416C15.0086 5.634 15.0081 5.63384 15.0076 5.63368C15.0066 5.63335 15.0055 5.63301 15.0044 5.63267C15.0022 5.63198 14.9999 5.63126 14.9974 5.63052C14.9924 5.62904 14.9868 5.62747 14.9805 5.62585C14.968 5.6226 14.953 5.61917 14.9354 5.6159C14.9002 5.60935 14.8552 5.60347 14.7999 5.60091C14.6891 5.59577 14.5391 5.60402 14.347 5.64534C13.9638 5.72781 13.4144 5.94165 12.6708 6.44317L13.0622 7.02352ZM10.9998 6.85001C11.5979 6.85001 12.2037 6.9446 12.7906 7.07501L12.9424 6.39168C12.3293 6.25542 11.6685 6.15001 10.9998 6.15001V6.85001ZM9.22685 7.07057C9.78949 6.91429 10.3902 6.85001 10.9998 6.85001V6.15001C10.3428 6.15001 9.67685 6.21907 9.0395 6.39611L9.22685 7.07057ZM7.09984 5.96668C7.20523 6.30043 7.20491 6.30053 7.20458 6.30064C7.20448 6.30067 7.20415 6.30077 7.20394 6.30084C7.20352 6.30097 7.20311 6.30109 7.2027 6.30122C7.2019 6.30147 7.20113 6.3017 7.20039 6.30192C7.19893 6.30236 7.1976 6.30274 7.19643 6.30307C7.19407 6.30373 7.19231 6.30419 7.19113 6.30448C7.18878 6.30506 7.18883 6.30496 7.19131 6.30452C7.19624 6.30364 7.21114 6.30131 7.23636 6.30018C7.28656 6.29793 7.37976 6.30033 7.51875 6.32987C7.79716 6.38903 8.26322 6.55799 8.9343 7.02136L9.33204 6.44533C8.60312 5.94203 8.05251 5.72766 7.66425 5.64515C7.46992 5.60386 7.31728 5.59584 7.20498 5.60088C7.14895 5.6034 7.10343 5.60914 7.06826 5.61542C7.05069 5.61856 7.03576 5.62182 7.02345 5.62486C7.0173 5.62638 7.0118 5.62784 7.00697 5.6292C7.00455 5.62988 7.0023 5.63053 7.00021 5.63115C6.99917 5.63146 6.99816 5.63177 6.9972 5.63206C6.99672 5.63221 6.99625 5.63236 6.99579 5.6325C6.99556 5.63257 6.99522 5.63268 6.99511 5.63271C6.99477 5.63282 6.99444 5.63292 7.09984 5.96668ZM7.35927 7.80494C7.29549 7.61516 7.07986 6.98783 7.42624 6.09303L6.77344 5.84033C6.34089 6.95775 6.61035 7.77384 6.69574 8.02793L7.35927 7.80494ZM7.36521 7.82266C7.36329 7.81691 7.36125 7.81085 7.35927 7.80493L6.69574 8.02793C6.69779 8.03403 6.69954 8.03925 6.70113 8.04403L7.36521 7.82266ZM6.6165 9.93334C6.6165 9.22834 6.87861 8.64149 7.29657 8.16382L6.76977 7.70287C6.25439 8.29187 5.9165 9.03835 5.9165 9.93334H6.6165ZM9.7082 13.2525C8.89363 13.1548 8.12799 12.9564 7.56625 12.4859C7.02211 12.0301 6.6165 11.2727 6.6165 9.93334H5.9165C5.9165 11.4273 6.37756 12.4033 7.11675 13.0225C7.83835 13.6269 8.77271 13.8453 9.6248 13.9475L9.7082 13.2525ZM9.54632 14.6495C9.60228 14.2578 9.76754 13.9939 9.91399 13.8475L9.41902 13.3525C9.16547 13.6061 8.93073 14.0089 8.85335 14.5505L9.54632 14.6495ZM6.73149 14.1441C7.1236 14.8107 7.65886 15.0718 8.17167 15.1193C8.65957 15.1646 9.09756 15.0143 9.32548 14.9267L9.07419 14.2733C8.86878 14.3523 8.55677 14.4521 8.23634 14.4223C7.94082 14.3949 7.60941 14.256 7.33485 13.7892L6.73149 14.1441ZM5.86815 13.5486C6.12772 13.5722 6.34061 13.7092 6.49958 13.8613C6.57764 13.9359 6.63738 14.0093 6.67711 14.0634C6.69682 14.0903 6.71118 14.1118 6.72001 14.1255C6.72441 14.1324 6.7274 14.1373 6.72896 14.1398C6.72974 14.1411 6.73016 14.1418 6.73022 14.1419C6.73024 14.142 6.73018 14.1419 6.73003 14.1416C6.72995 14.1415 6.72985 14.1413 6.72972 14.1411C6.72966 14.141 6.7296 14.1409 6.72952 14.1407C6.72949 14.1407 6.72943 14.1406 6.72941 14.1405C6.72935 14.1404 6.72929 14.1403 7.03317 13.9667C7.33706 13.793 7.33699 13.7929 7.33692 13.7928C7.3369 13.7928 7.33683 13.7926 7.33678 13.7926C7.33668 13.7924 7.33658 13.7922 7.33647 13.792C7.33625 13.7916 7.336 13.7912 7.33573 13.7907C7.33519 13.7898 7.33454 13.7887 7.33378 13.7874C7.33228 13.7848 7.33036 13.7816 7.32803 13.7778C7.32338 13.77 7.31706 13.7598 7.30909 13.7474C7.29318 13.7226 7.27056 13.6889 7.24131 13.6491C7.18313 13.5699 7.09703 13.4641 6.98343 13.3554C6.75906 13.1408 6.40529 12.8945 5.93152 12.8514L5.86815 13.5486ZM6.03388 13.3799C5.96147 13.3293 5.91844 13.292 5.89465 13.2677C5.86861 13.2411 5.87818 13.2428 5.88941 13.2723C5.89582 13.2891 5.90322 13.3164 5.90322 13.3517C5.90322 13.3881 5.89529 13.4252 5.87961 13.4595C5.84937 13.5256 5.8037 13.5543 5.79286 13.5607C5.78064 13.5678 5.77785 13.5668 5.79183 13.5632C5.80387 13.56 5.82014 13.557 5.83908 13.5546C5.85747 13.5523 5.87442 13.5511 5.88662 13.5505C5.89257 13.5502 5.89699 13.5501 5.89942 13.55C5.90062 13.55 5.9013 13.55 5.9014 13.55C5.90145 13.55 5.90135 13.55 5.90109 13.55C5.90096 13.55 5.90079 13.55 5.90058 13.55C5.90048 13.55 5.90037 13.55 5.90024 13.55C5.90018 13.55 5.90008 13.55 5.90005 13.55C5.89994 13.55 5.89984 13.55 5.89984 13.2C5.89984 12.85 5.89973 12.85 5.89961 12.85C5.89957 12.85 5.89945 12.85 5.89937 12.85C5.8992 12.85 5.89902 12.85 5.89882 12.85C5.89844 12.85 5.89801 12.85 5.89753 12.85C5.89657 12.85 5.89543 12.85 5.89411 12.85C5.89147 12.8501 5.88811 12.8501 5.88411 12.8502C5.87612 12.8504 5.86544 12.8507 5.85264 12.8513C5.82734 12.8526 5.79221 12.855 5.75226 12.86C5.68543 12.8684 5.55469 12.8892 5.44015 12.956C5.37931 12.9915 5.29405 13.0567 5.24298 13.1684C5.18705 13.2908 5.19546 13.417 5.23527 13.5215C5.3012 13.6946 5.46183 13.834 5.63246 13.9534L6.03388 13.3799ZM6.99317 14.641C6.80865 14.1613 6.57307 13.8449 6.37232 13.6442C6.27243 13.5443 6.18233 13.4742 6.11331 13.4273C6.07883 13.4038 6.04964 13.3862 6.02716 13.3735C6.01592 13.3672 6.00635 13.3621 5.99863 13.3581C5.99477 13.3561 5.99137 13.3544 5.98846 13.353C5.987 13.3523 5.98566 13.3516 5.98445 13.3511C5.98384 13.3508 5.98327 13.3505 5.98272 13.3502C5.98245 13.3501 5.98218 13.35 5.98193 13.3499C5.9818 13.3498 5.98161 13.3497 5.98155 13.3497C5.98136 13.3496 5.98118 13.3495 5.83317 13.6667C5.68516 13.9838 5.68498 13.9838 5.6848 13.9837C5.68475 13.9836 5.68457 13.9836 5.68446 13.9835C5.68423 13.9834 5.68401 13.9833 5.6838 13.9832C5.68338 13.983 5.68298 13.9828 5.68262 13.9826C5.68189 13.9823 5.68127 13.982 5.68077 13.9817C5.67977 13.9813 5.67922 13.981 5.6791 13.9809C5.67887 13.9808 5.68037 13.9816 5.68345 13.9833C5.68962 13.9868 5.7021 13.9941 5.7197 14.0061C5.75484 14.03 5.81058 14.0724 5.87735 14.1392C6.00994 14.2718 6.19102 14.5054 6.33983 14.8923L6.99317 14.641ZM9.09468 15.2908C8.14201 15.4905 7.62282 15.2829 7.34945 15.081C7.20701 14.9758 7.11635 14.8613 7.06217 14.7757C7.0351 14.733 7.01748 14.698 7.0074 14.676C7.00238 14.665 6.99929 14.6574 6.99788 14.6538C6.99718 14.652 6.9969 14.6512 6.99702 14.6516C6.99708 14.6517 6.99724 14.6522 6.9975 14.6529C6.99763 14.6533 6.99778 14.6537 6.99795 14.6542C6.99804 14.6545 6.99813 14.6548 6.99823 14.6551C6.99828 14.6552 6.99836 14.6554 6.99838 14.6555C6.99846 14.6558 6.99854 14.656 6.6665 14.7667C6.33446 14.8774 6.33455 14.8776 6.33464 14.8779C6.33467 14.878 6.33476 14.8782 6.33482 14.8784C6.33494 14.8788 6.33508 14.8792 6.33522 14.8796C6.3355 14.8804 6.33581 14.8813 6.33615 14.8823C6.33684 14.8843 6.33765 14.8866 6.3386 14.8892C6.34048 14.8944 6.34289 14.9009 6.34587 14.9085C6.35182 14.9238 6.36006 14.9436 6.37092 14.9674C6.39261 15.0148 6.42499 15.078 6.47084 15.1503C6.56249 15.295 6.70933 15.4784 6.93356 15.644C7.39352 15.9838 8.12433 16.2095 9.23833 15.9759L9.09468 15.2908ZM9.5165 17V15.6333H8.8165V17H9.5165Z" fill="#4B9EFF"/>
</svg>
