<svg width="22" height="22" viewBox="0 0 22 22" fill="none" xmlns="http://www.w3.org/2000/svg">
<path d="M21 11C21 5.47727 16.5227 1 11 1C5.47727 1 1 5.47727 1 11C1 16.5227 5.47727 21 11 21C16.5227 21 21 16.5227 21 11ZM5.61545 14.5536C5.78818 14.5755 5.96455 14.5873 6.14273 14.5873C7.17818 14.5891 8.13091 14.2155 8.88636 13.5882C7.91909 13.5655 7.10364 12.8818 6.82273 11.9436C6.95727 11.9718 7.09636 11.9882 7.23818 11.9891C7.44 11.99 7.63455 11.9627 7.82 11.91C6.80909 11.6864 6.04727 10.7273 6.04727 9.58455C6.04727 9.57455 6.04727 9.56455 6.04727 9.55455C6.34545 9.73455 6.68545 9.84364 7.04818 9.86C6.45636 9.43182 6.06636 8.70455 6.06636 7.88636C6.06636 7.45364 6.17545 7.05 6.36545 6.70455C7.45545 8.14545 9.08364 9.10182 10.9191 9.22091C10.8809 9.04909 10.8618 8.87 10.8618 8.68727C10.8618 7.39545 11.8509 6.36455 13.0709 6.38455C13.7064 6.39545 14.2809 6.68727 14.6836 7.14545C15.1873 7.04909 15.66 6.86364 16.0864 6.60455C15.9218 7.14364 15.5709 7.59273 15.1145 7.87364C15.5618 7.82364 15.9873 7.70545 16.3836 7.52636C16.0873 7.98727 15.7127 8.39 15.2809 8.71182C15.2855 8.81182 15.2873 8.91182 15.2873 9.01182C15.2873 12.0791 13.0645 15.6164 9.00091 15.6145C7.75455 15.6155 6.59273 15.2245 5.61545 14.5536Z" stroke="#4B9EFF" stroke-width="0.7"/>
</svg>
