<svg width="22" height="22" viewBox="0 0 22 22" fill="none" xmlns="http://www.w3.org/2000/svg">
<path d="M10.8214 1.17847C5.39643 1.17847 1 5.57489 1 10.9999C1 16.4249 5.39643 20.8213 10.8214 20.8213C16.2464 20.8213 20.6429 16.4249 20.6429 10.9999C20.6429 5.57489 16.2464 1.17847 10.8214 1.17847Z" stroke="#4B9EFF"/>
<path fill-rule="evenodd" clip-rule="evenodd" d="M14 15.1785V7.17847H7V15.1785H14ZM7 6.17847H14C14.1313 6.17847 14.2614 6.20433 14.3827 6.25459C14.504 6.30484 14.6142 6.3785 14.7071 6.47136C14.8 6.56422 14.8736 6.67446 14.9239 6.79578C14.9741 6.91711 15 7.04714 15 7.17847V15.1785C15 15.3098 14.9741 15.4398 14.9239 15.5611C14.8736 15.6825 14.8 15.7927 14.7071 15.8856C14.6142 15.9784 14.504 16.0521 14.3827 16.1023C14.2614 16.1526 14.1313 16.1785 14 16.1785H7C6.86868 16.1785 6.73864 16.1526 6.61732 16.1023C6.49599 16.0521 6.38575 15.9784 6.29289 15.8856C6.20003 15.7927 6.12638 15.6825 6.07612 15.5611C6.02587 15.4398 6 15.3098 6 15.1785V7.17847C6 7.04714 6.02587 6.91711 6.07612 6.79578C6.12638 6.67446 6.20003 6.56422 6.29289 6.47136C6.38575 6.3785 6.49599 6.30484 6.61732 6.25459C6.73864 6.20433 6.86868 6.17847 7 6.17847ZM8.49977 8.67844H12.4998C12.6324 8.67846 12.7595 8.73114 12.8533 8.82491C12.947 8.91868 12.9997 9.04584 12.9997 9.17844C12.9997 9.31103 12.947 9.4382 12.8533 9.53196C12.7595 9.62573 12.6324 9.67842 12.4998 9.67844H8.49977C8.36717 9.67842 8.24001 9.62573 8.14626 9.53196C8.05251 9.4382 7.99984 9.31103 7.99984 9.17844C7.99984 9.04584 8.05251 8.91868 8.14626 8.82491C8.24001 8.73114 8.36717 8.67846 8.49977 8.67844ZM8.49977 10.6784H10.4998C10.6324 10.6784 10.7596 10.7311 10.8533 10.8249C10.9471 10.9187 10.9998 11.0458 10.9998 11.1784C10.9998 11.311 10.9471 11.4382 10.8533 11.532C10.7596 11.6258 10.6324 11.6784 10.4998 11.6784H8.49977C8.36716 11.6784 8.23998 11.6258 8.14621 11.532C8.05244 11.4382 7.99977 11.311 7.99977 11.1784C7.99977 11.0458 8.05244 10.9187 8.14621 10.8249C8.23998 10.7311 8.36716 10.6784 8.49977 10.6784ZM8.49977 12.6784H11.9998C12.1324 12.6785 12.2595 12.7311 12.3533 12.8249C12.447 12.9187 12.4997 13.0458 12.4997 13.1784C12.4997 13.311 12.447 13.4382 12.3533 13.532C12.2595 13.6257 12.1324 13.6784 11.9998 13.6784H8.49977C8.36717 13.6784 8.24001 13.6257 8.14626 13.532C8.05251 13.4382 7.99984 13.311 7.99984 13.1784C7.99984 13.0458 8.05251 12.9187 8.14626 12.8249C8.24001 12.7311 8.36717 12.6785 8.49977 12.6784Z" fill="#4B9EFF"/>
</svg>
