<svg width="200" height="200" viewBox="0 0 200 200" fill="none" xmlns="http://www.w3.org/2000/svg">
<path fill-rule="evenodd" clip-rule="evenodd" d="M186.497 18.6039C186.962 18.448 187.462 18.4244 187.94 18.5356C188.418 18.6469 188.856 18.8886 189.206 19.234C189.555 19.5796 189.803 20.0155 189.921 20.4936C190.04 20.9716 190.024 21.4733 189.876 21.943L139.968 180.599C139.831 181.037 139.583 181.431 139.249 181.745C138.915 182.059 138.507 182.281 138.063 182.39C137.618 182.499 137.154 182.492 136.713 182.368C136.273 182.244 135.872 182.009 135.548 181.684L88.5818 134.535C88.301 134.253 87.9202 134.095 87.5231 134.095C87.126 134.095 86.7452 134.253 86.4644 134.535L56.1337 164.984C55.7614 165.358 55.2871 165.612 54.7707 165.716C54.2543 165.819 53.7191 165.766 53.2326 165.563C52.7462 165.361 52.3305 165.019 52.038 164.579C51.7455 164.14 51.5895 163.623 51.5896 163.094V107.006C51.5896 106.478 51.3136 105.989 50.8627 105.717L11.2924 81.8824C10.8558 81.6195 10.5035 81.2365 10.2772 80.7787C10.0509 80.3209 9.96012 79.8076 10.0156 79.2996C10.0711 78.7915 10.2706 78.3102 10.5904 77.9125C10.9101 77.5148 11.3368 77.2176 11.8197 77.056L186.497 18.6039ZM156.29 37.4717C156.933 37.0681 157.174 36.2455 156.851 35.5567C156.528 34.8678 155.742 34.5304 155.023 34.7712L22.0813 79.256C21.5265 79.4417 21.1302 79.9345 21.0664 80.518C21.0026 81.1014 21.283 81.6688 21.7844 81.9708L53.4368 101.036C53.9193 101.326 54.5234 101.321 55.0006 101.021L156.29 37.4717ZM179.195 38.1567C179.407 37.4855 179.125 36.7571 178.519 36.4039C177.913 36.0507 177.143 36.1674 176.668 36.6845L92.1883 128.556C91.6432 129.149 91.6615 130.068 92.2298 130.638L134.469 173.042C134.839 173.414 135.375 173.564 135.884 173.439C136.392 173.315 136.798 172.933 136.956 172.432L179.195 38.1567ZM164.36 42.1902C164.868 41.637 164.891 40.7914 164.412 40.2117C163.934 39.632 163.102 39.4971 162.466 39.8961L57.6167 105.682C57.179 105.957 56.913 106.438 56.913 106.957V153.015C56.913 153.623 57.2778 154.171 57.8373 154.404C58.3968 154.636 59.0408 154.508 59.469 154.078L85.5822 127.863C85.5963 127.849 85.6101 127.835 85.6236 127.82L164.36 42.1902Z" fill="white"/>
</svg>
