<svg width="200" height="200" viewBox="0 0 200 200" fill="none" xmlns="http://www.w3.org/2000/svg">
<path d="M46.8398 23H152.713C153.854 23 154.764 23.9533 154.711 25.0932L151.11 102.257C149.83 129.677 127.226 151.251 99.7763 151.251C72.3263 151.251 49.7226 129.677 48.443 102.257L44.842 25.0932C44.7888 23.9533 45.6987 23 46.8398 23Z" stroke="white" stroke-width="6"/>
<path d="M55.0261 179.311H144.527" stroke="white" stroke-width="6" stroke-linecap="round"/>
<path d="M99.7764 153.803V179.31" stroke="white" stroke-width="6" stroke-linecap="round"/>
<path d="M98.8812 51.8387L105.488 65.2262C106.362 66.997 108.052 68.2245 110.006 68.5084L124.78 70.6552L114.089 81.0759C112.675 82.4543 112.03 84.4403 112.364 86.3867L114.888 101.101L101.673 94.1538C99.9253 93.2349 97.8371 93.2349 96.0892 94.1538L82.875 101.101L85.3987 86.3867C85.7325 84.4403 85.0872 82.4543 83.6731 81.0759L72.9826 70.6552L87.7565 68.5084C89.7108 68.2245 91.4002 66.997 92.2741 65.2262L98.8812 51.8387Z" stroke="white" stroke-width="6"/>
<path d="M42.9436 40.1377H19.3035C16.542 40.1377 14.3035 42.3763 14.3035 45.1377V57.4838C14.3035 64.6937 14.8678 71.9674 17.4975 78.6805C22.2632 90.8465 31.4559 105.025 45.6286 105.025" stroke="white" stroke-width="6" stroke-linecap="round"/>
<path d="M157.057 40.1377H180.697C183.458 40.1377 185.697 42.3763 185.697 45.1377V57.4838C185.697 64.6937 185.132 71.9674 182.503 78.6805C177.737 90.8465 168.544 105.025 154.372 105.025" stroke="white" stroke-width="6" stroke-linecap="round"/>
</svg>
