<svg width="192" height="175" viewBox="0 0 192 175" fill="none" xmlns="http://www.w3.org/2000/svg">
<path fill-rule="evenodd" clip-rule="evenodd" d="M188.264 0.14638C188.76 -0.0198726 189.293 -0.0450517 189.803 0.0736249C190.313 0.192265 190.78 0.450062 191.153 0.81853C191.526 1.18718 191.79 1.65214 191.916 2.16205C192.042 2.67198 192.026 3.20716 191.868 3.70814L138.633 172.941C138.486 173.408 138.222 173.829 137.866 174.164C137.51 174.498 137.074 174.735 136.6 174.852C136.126 174.968 135.631 174.96 135.161 174.828C134.691 174.696 134.263 174.445 133.918 174.099L83.8208 123.807C83.5213 123.506 83.1151 123.337 82.6916 123.337C82.268 123.337 81.8618 123.506 81.5623 123.807L49.2095 156.285C48.8124 156.684 48.3065 156.955 47.7557 157.065C47.2048 157.175 46.6339 157.119 46.1151 156.903C45.5962 156.688 45.1528 156.322 44.8408 155.853C44.5288 155.384 44.3623 154.833 44.3624 154.269V94.4423C44.3624 93.8791 44.0681 93.3572 43.5871 93.0675L1.37881 67.6435C0.913133 67.3631 0.537319 66.9545 0.295935 66.4662C0.0545504 65.9779 -0.0422792 65.4303 0.0169291 64.8885C0.0761373 64.3466 0.288899 63.8331 0.629985 63.4089C0.971072 62.9847 1.42617 62.6677 1.94131 62.4953L188.264 0.14638ZM156.043 20.2721C156.729 19.8416 156.986 18.9641 156.641 18.2294C156.296 17.4946 155.459 17.1347 154.691 17.3915L12.8869 64.842C12.2952 65.04 11.8725 65.5657 11.8044 66.1881C11.7364 66.8105 12.0355 67.4157 12.5703 67.7378L46.3328 88.0735C46.8475 88.3836 47.4919 88.3777 48.0009 88.0583L156.043 20.2721ZM180.475 21.0027C180.701 20.2868 180.401 19.5099 179.754 19.1331C179.107 18.7564 178.286 18.8808 177.779 19.4324L87.6678 117.429C87.0864 118.061 87.1059 119.041 87.712 119.65L132.768 164.881C133.162 165.277 133.734 165.437 134.276 165.304C134.818 165.171 135.252 164.764 135.42 164.23L180.475 21.0027ZM164.65 25.3052C165.193 24.7151 165.217 23.813 164.707 23.1947C164.196 22.5764 163.309 22.4325 162.63 22.8582L50.7914 93.0298C50.3245 93.3228 50.0408 93.8366 50.0408 94.3894V143.518C50.0408 144.167 50.4299 144.751 51.0267 145C51.6235 145.248 52.3104 145.11 52.7672 144.652L80.6212 116.69C80.6363 116.675 80.651 116.659 80.6654 116.643L164.65 25.3052Z" fill="white"/>
</svg>
